<svg width="50" height="50" viewBox="0 0 50 50" fill="none" xmlns="http://www.w3.org/2000/svg">
<path fill-rule="evenodd" clip-rule="evenodd" d="M32.6061 28.4052C33.0718 27.3659 33.3307 26.2138 33.3307 25.0013C33.3307 20.3989 29.5998 16.668 24.9974 16.668C23.7849 16.668 22.6328 16.9269 21.5935 17.3926L23.1443 18.9434C23.7304 18.7643 24.3527 18.668 24.9974 18.668C28.4952 18.668 31.3307 21.5035 31.3307 25.0013C31.3307 25.646 31.2344 26.2683 31.0553 26.8544L32.6061 28.4052ZM20.5002 20.5419C19.3652 21.6865 18.6641 23.262 18.6641 25.0013C18.6641 28.4991 21.4996 31.3346 24.9974 31.3346C26.7367 31.3346 28.3122 30.6335 29.4568 29.4985L30.871 30.9127C29.3645 32.4097 27.289 33.3346 24.9974 33.3346C20.395 33.3346 16.6641 29.6037 16.6641 25.0013C16.6641 22.7097 17.589 20.6342 19.086 19.1277L20.5002 20.5419Z" fill="black"/>
<path fill-rule="evenodd" clip-rule="evenodd" d="M37.4677 33.2647C40.4218 30.8299 42.6402 28.1495 43.7556 26.688C43.7795 26.6566 43.8045 26.6243 43.8303 26.5911C44.1296 26.2044 44.528 25.6897 44.528 25C44.528 24.3103 44.1296 23.7956 43.8303 23.4089C43.817 23.3917 43.8039 23.3748 43.7911 23.3582C43.779 23.3426 43.7672 23.3272 43.7556 23.312C42.571 21.7598 40.1424 18.8329 36.9096 16.2854C33.6904 13.7486 29.5622 11.5 24.9984 11.5C22.3515 11.5 19.8511 12.2564 17.5896 13.3866L19.0891 14.8861C20.9588 14.0324 22.9482 13.5 24.9984 13.5C28.9146 13.5 32.609 15.4427 35.6717 17.8562C38.7208 20.259 41.0332 23.0414 42.1657 24.5253C42.2626 24.6523 42.3365 24.7493 42.3981 24.8346C42.4528 24.9103 42.4872 24.9624 42.5094 25C42.4872 25.0376 42.4528 25.0897 42.3981 25.1654C42.3365 25.2507 42.2626 25.3477 42.1657 25.4747C41.0801 26.8972 38.9102 29.5128 36.0465 31.8435L37.4677 33.2647ZM16.3572 16.3968C15.6539 16.8527 14.9752 17.3438 14.325 17.8562C11.2759 20.259 8.96348 23.0414 7.83099 24.5253C7.73414 24.6523 7.66016 24.7493 7.59857 24.8346C7.54388 24.9103 7.50955 24.9624 7.48726 25C7.50955 25.0376 7.54388 25.0897 7.59857 25.1654C7.66016 25.2507 7.73414 25.3477 7.83099 25.4747C8.96349 26.9586 11.2759 29.741 14.325 32.1438C17.3878 34.5573 21.0821 36.5 24.9984 36.5C28.065 36.5 30.9956 35.3088 33.5934 33.633L35.0376 35.0772C32.152 37.0047 28.72 38.5 24.9984 38.5C20.4345 38.5 16.3063 36.2514 13.0871 33.7146C9.85435 31.1671 7.42566 28.2402 6.2411 26.688C6.21719 26.6567 6.19223 26.6244 6.16654 26.5912L6.16642 26.5911C5.8671 26.2044 5.46875 25.6897 5.46875 25C5.46875 24.3103 5.8671 23.7956 6.16642 23.4089L6.16652 23.4088C6.19222 23.3756 6.21718 23.3433 6.2411 23.312C7.42566 21.7598 9.85435 18.8329 13.0871 16.2854C13.6673 15.8281 14.2771 15.3803 14.9136 14.9533L16.3572 16.3968Z" fill="black"/>
<path d="M10.4141 4.16797L43.7474 37.5013" stroke="black" stroke-width="2"/>
</svg>
