<svg width="50" height="50" viewBox="0 0 50 50" fill="none" xmlns="http://www.w3.org/2000/svg">
<path d="M32.3307 25.0013C32.3307 29.0514 29.0475 32.3346 24.9974 32.3346C20.9473 32.3346 17.6641 29.0514 17.6641 25.0013C17.6641 20.9512 20.9473 17.668 24.9974 17.668C29.0475 17.668 32.3307 20.9512 32.3307 25.0013Z" stroke="#5966EC" stroke-width="2"/>
<path d="M42.9623 23.9187C43.3405 24.4142 43.5296 24.662 43.5296 25C43.5296 25.338 43.3405 25.5858 42.9623 26.0813C40.6453 29.1174 33.4801 37.5 25 37.5C16.5199 37.5 9.35474 29.1174 7.0377 26.0813C6.6595 25.5858 6.4704 25.338 6.4704 25C6.4704 24.662 6.6595 24.4142 7.0377 23.9187C9.35474 20.8826 16.5199 12.5 25 12.5C33.4801 12.5 40.6453 20.8826 42.9623 23.9187Z" stroke="#5966EC" stroke-width="2"/>
</svg>
